<svg width="40" height="48" viewBox="0 0 40 48" fill="none" xmlns="http://www.w3.org/2000/svg">
<path d="M22.4681 11.3061C21.8085 11.5097 20.8404 11.6812 19.5 11.7991C19.617 5.72271 22.6808 1.44675 28.8617 0C29.8511 4.45814 26.0851 10.0844 22.4681 11.3061ZM35.3723 19.0971C36.0532 18.0898 37.1383 16.9645 38.6277 15.6999C36.2553 12.7421 33.5106 10.9524 29.5745 10.9524C25.8085 10.9524 22.6383 12.9029 20.3191 12.9029C18.3511 12.9029 14.7979 11.1775 11.3298 11.1775C3.92553 11.1775 0 18.4756 0 26.0737C0 34.5184 6.35106 48 12.7872 48C15.3191 48 17.5957 46.071 20.6064 46.071C23.7234 46.071 26.2234 47.9143 29.1489 47.9143C34.0426 47.9143 38.5745 39.6088 40 35.0864C35.0213 33.5539 31.0213 25.42 35.3723 19.0971Z" fill="#C5C5C5"/>
</svg>
