<svg width="20" height="18" viewBox="0 0 20 18" fill="none" xmlns="http://www.w3.org/2000/svg">
<path d="M14.3826 0C12.7614 0 11.2045 0.969158 10 2.06276C8.79545 0.972929 7.23864 0 5.61742 0C2.15152 0 0 2.13441 0 5.56983C0 8.33024 2.36364 10.5627 2.57955 10.7626L9.0303 17.1055C9.56439 17.6296 10.4356 17.6334 10.9697 17.1055L17.4167 10.7776L17.4356 10.7588C18.0379 10.1743 20 8.07758 20 5.56983C20 2.13441 17.8485 0 14.3826 0ZM16.5682 9.91784L10.1212 16.2419C10.053 16.3098 9.95076 16.3098 9.88258 16.2419L3.42045 9.89522C2.34091 8.88458 1.21212 7.16498 1.21212 5.56983C1.21212 2.79811 2.81818 1.20673 5.61742 1.20673C7.32576 1.20673 8.85227 2.60202 10 3.74842C10.5985 3.15259 12.4129 1.20673 14.3826 1.20673C17.1818 1.20673 18.7879 2.79811 18.7879 5.56983C18.7879 7.16875 17.7197 8.78276 16.5682 9.91784Z" fill="white"/>
</svg>
