<svg width="40" height="48" fill="none" xmlns="http://www.w3.org/2000/svg"><path d="M22.468 11.306c-.66.204-1.628.375-2.968.493C19.617 5.723 22.68 1.447 28.862 0c.99 4.458-2.777 10.084-6.394 11.306zm12.904 7.791c.681-1.007 1.766-2.133 3.256-3.397-2.373-2.958-5.117-4.748-9.053-4.748-3.767 0-6.937 1.95-9.256 1.95-1.968 0-5.521-1.724-8.99-1.724C3.927 11.178 0 18.476 0 26.074 0 34.518 6.351 48 12.787 48c2.532 0 4.809-1.929 7.82-1.929 3.116 0 5.616 1.843 8.542 1.843 4.894 0 9.425-8.305 10.851-12.828-4.979-1.532-8.979-9.666-4.628-15.989z" fill="#C5C5C5"/></svg>