<svg width="20" height="18" fill="none" xmlns="http://www.w3.org/2000/svg"><path d="M14.383 0C12.76 0 11.205.97 10 2.063 8.795.973 7.239 0 5.617 0 2.152 0 0 2.134 0 5.57c0 2.76 2.364 4.993 2.58 5.193l6.45 6.342a1.389 1.389 0 0 0 1.94 0l6.447-6.327.019-.02C18.038 10.175 20 8.079 20 5.57 20 2.134 17.849 0 14.383 0zm2.185 9.918l-6.447 6.324a.165.165 0 0 1-.238 0L3.42 9.895c-1.08-1.01-2.208-2.73-2.208-4.325 0-2.772 1.606-4.363 4.405-4.363 1.709 0 3.235 1.395 4.383 2.541.598-.595 2.413-2.541 4.383-2.541 2.799 0 4.405 1.591 4.405 4.363 0 1.599-1.068 3.213-2.22 4.348z" fill="#fff"/></svg>