<svg xmlns="http://www.w3.org/2000/svg" xmlns:xlink="http://www.w3.org/1999/xlink" width="41" height="41"><defs><path id="a" d="M357 76.5c0 11.3-9.2 20.5-20.5 20.5S316 87.8 316 76.5 325.2 56 336.5 56 357 65.2 357 76.5zm-3.17 0c0-9.56-7.77-17.33-17.33-17.33a17.35 17.35 0 0 0-17.33 17.33c0 9.56 7.77 17.33 17.33 17.33 9.56 0 17.33-7.77 17.33-17.33zm-9.44 0a7.9 7.9 0 0 1-15.78 0 7.9 7.9 0 0 1 15.78 0zm-3.17 0a4.73 4.73 0 1 0-9.45.01 4.73 4.73 0 0 0 9.45-.01z"/></defs><use fill="#fff" xlink:href="#a" transform="translate(-316 -56)"/></svg>